<svg width="218" height="244" viewBox="0 0 218 244" fill="none" xmlns="http://www.w3.org/2000/svg">
<path opacity="0.18" d="M216.083 87.5485C217.637 93.7039 217.825 100.125 216.634 106.361C215.444 112.597 212.902 118.496 209.189 123.646C203.645 131.192 195.742 136.835 190.82 144.781C180.182 161.937 185.892 185.363 176.135 203.036C167.979 217.82 151.082 225.083 135.393 231.317C123.073 236.208 110.63 241.13 97.5703 243.101C84.5112 245.072 70.4664 243.821 59.1504 237.027C49.8181 231.44 42.962 222.582 36.6295 213.736C21.0632 191.973 6.99377 168.275 2.21361 141.947C-2.56655 115.62 3.39633 86.0886 22.9974 67.8735C32.5393 59.0031 45.0379 52.8862 51.7708 41.7305C58.8363 30.0265 58.9349 13.6963 69.9181 5.54049C73.9714 2.52825 79.0103 1.12993 84.0122 0.464653C96.0544 -1.0854 108.276 1.26572 118.884 7.17289C129.645 13.2035 138.479 22.7885 150.201 26.6446C165.373 31.6404 184.845 27.8027 194.929 42.5867C203.029 54.4755 212.485 73.7008 216.083 87.5485Z" fill="#26B7AE"/>
<path d="M151.526 79.134C151.35 79.5056 151.11 79.8433 150.818 80.1319C148.47 82.6119 145.431 84.3288 142.095 85.0599C140.917 85.3312 139.712 85.4676 138.504 85.4665C137.795 80.8958 137.075 76.3189 136.52 71.7297C136.083 68.1446 135.756 64.5656 135.602 60.9682C135.498 58.7136 130.613 50.8535 131.611 48.7467C132.713 46.4306 140.654 54.3585 141.547 55.8677C146.506 64.1837 148.286 70.6147 151.686 77.7665C151.815 78.2256 151.757 78.717 151.526 79.134V79.134Z" fill="#26B7AE"/>
<path d="M142.895 84.222C142.658 84.5314 142.389 84.8162 142.095 85.0721C140.917 85.3434 139.712 85.4798 138.503 85.4786C137.795 80.9079 137.074 76.331 136.52 71.7418C136.729 68.1362 137.109 64.5449 137.66 60.968C137.425 62.4649 139.267 65.7297 139.766 67.1958L141.928 73.5837C143.056 76.9162 145.464 80.9695 142.895 84.222Z" fill="url(#paint0_linear_672_2)"/>
<path d="M140.241 92.0389C140.734 95.045 141.362 98.088 142.846 100.749C143.61 102.117 144.75 103.46 146.296 103.7C147.156 103.781 148.023 103.652 148.822 103.324C150.477 102.754 152.039 101.941 153.454 100.909C154.806 99.8725 156.08 98.7381 157.267 97.5152C159.032 95.8494 160.665 94.0494 162.152 92.1313C162.836 91.2073 163.458 90.2341 164.203 89.3532C167.283 85.688 172.211 84.0433 175.704 80.7723C176.646 79.8976 178.556 75.8936 178.414 74.6123C177.133 73.8731 174.503 76.8484 173.086 77.2796C171.669 77.7108 170.345 78.413 168.922 78.8134C167.218 79.2885 165.42 79.3119 163.704 78.8812C163.125 78.7333 162.435 69.5981 161.856 69.8075C161.565 69.9297 161.304 70.1148 161.092 70.3496C159.897 71.5816 159.244 82.0967 158.253 83.4642C156.891 85.3122 155.006 86.7167 153.14 88.0596C152.973 88.1766 152.764 88.2998 152.579 88.2074C152.518 88.1621 152.467 88.1049 152.429 88.0392C152.391 87.9736 152.367 87.9008 152.357 87.8255C151.871 86.0206 151.323 84.2281 150.725 82.4601C150.306 81.2281 149.715 79.8729 148.477 79.5033C147.374 79.1769 146.228 79.799 145.243 80.3965C143.974 81.1727 142.692 81.9365 141.43 82.7189C140.727 83.1501 139.877 83.5689 139.545 84.3636C139.138 85.3184 139.483 86.6366 139.6 87.616C139.785 89.1006 140 90.5729 140.241 92.0389Z" fill="#F5BCBA"/>
<path d="M151.483 175.821C151.483 177.706 151.39 179.56 151.224 181.402C149.787 197.164 142.35 211.772 130.451 222.208C118.551 232.643 103.097 238.11 87.2826 237.477C71.4678 236.845 56.5003 230.161 45.4721 218.809C34.4439 207.456 28.1978 192.301 28.0242 176.474C28.0242 176.265 28.0242 176.062 28.0242 175.858C27.9427 167.7 29.4793 159.606 32.5451 152.044C35.6109 144.483 40.1451 137.605 45.8855 131.807C51.626 126.008 58.4589 121.406 65.9891 118.265C73.5193 115.123 81.5975 113.506 89.7566 113.506C97.9157 113.506 105.994 115.123 113.524 118.265C121.054 121.406 127.887 126.008 133.628 131.807C139.368 137.605 143.902 144.483 146.968 152.044C150.034 159.606 151.57 167.7 151.489 175.858L151.483 175.821Z" fill="#26B7AE"/>
<path d="M151.483 175.821C151.483 177.706 151.39 179.56 151.224 181.402C137.019 191.067 116.112 197.166 92.7965 197.166C65.6926 197.166 41.878 188.93 28.0242 176.443C28.0242 176.234 28.0242 176.031 28.0242 175.827C27.9427 167.669 29.4793 159.575 32.5451 152.014C35.6109 144.452 40.1451 137.574 45.8855 131.776C51.626 125.978 58.4589 121.375 65.9891 118.234C73.5193 115.093 81.5975 113.475 89.7566 113.475C97.9157 113.475 105.994 115.093 113.524 118.234C121.054 121.375 127.887 125.978 133.628 131.776C139.368 137.574 143.902 144.452 146.968 152.014C150.034 159.575 151.57 167.669 151.489 175.827L151.483 175.821Z" fill="url(#paint1_linear_672_2)"/>
<path d="M118.059 151.686C120.523 152.573 123.202 153.208 125.223 154.889C127.015 156.374 128.105 158.524 128.986 160.674C131.923 167.888 132.983 175.73 132.066 183.466C131.82 185.523 131.45 187.642 131.986 189.626C132.522 191.609 134.352 193.469 136.409 193.223C139.261 187.556 139.323 180.94 139.329 174.595C139.329 169.963 139.329 165.232 137.777 160.865C136.508 157.267 134.265 154.089 131.949 151.064C123.504 139.976 113.285 129.633 100.275 124.65C99.7352 124.374 99.1155 124.298 98.5252 124.434C95.8456 125.414 96.2829 130.182 97.324 132.097C98.8023 134.744 100.448 137.293 102.252 139.73C106.209 145.204 111.714 149.368 118.059 151.686V151.686Z" fill="url(#paint2_linear_672_2)"/>
<path d="M93.6956 137.765C93.7322 136.936 93.8393 136.111 94.0159 135.301C94.1107 134.898 94.3142 134.53 94.6043 134.235C94.8944 133.941 95.2598 133.732 95.6606 133.631C95.999 133.622 96.3364 133.591 96.6708 133.539C97.3546 133.329 97.6441 132.535 97.8412 131.851L100.028 124.213C100.447 122.734 100.872 121.182 100.552 119.685C100.047 117.344 97.8967 115.761 95.8023 114.615C94.2808 113.778 92.5683 113.032 90.8743 113.346C88.2501 113.833 86.7286 116.543 85.7492 119.026C84.6093 121.686 83.9082 124.513 83.6733 127.397C83.5008 130.73 83.2174 138.892 85.281 141.806C88.1393 145.896 93.2397 141.461 93.6956 137.765Z" fill="url(#paint3_linear_672_2)"/>
<path d="M126.923 128.124C132.51 130.015 138.467 130.81 143.851 133.219C144.024 133.271 144.185 133.359 144.323 133.477C144.46 133.594 144.572 133.739 144.651 133.902C144.698 134.169 144.664 134.444 144.553 134.691C140.006 148.213 137.442 162.322 136.939 176.579C140.16 177.159 143.453 177.231 146.696 176.794C147.061 176.772 147.414 176.66 147.725 176.468C148.024 176.206 148.249 175.871 148.378 175.495C153.589 163.795 158.267 151.875 162.411 139.736C163.144 137.586 163.871 135.338 163.575 133.083C163.15 129.8 160.68 127.213 158.333 124.878L140.044 106.632C139.579 106.108 139.007 105.688 138.368 105.4C137.632 105.181 136.855 105.143 136.101 105.289C128.888 106.182 119.038 106.46 105.782 105.905C104.063 105.831 112.558 115.62 113.266 117.498C113.833 118.989 115.625 120.911 116.722 122.069C119.469 124.952 123.178 126.855 126.923 128.124Z" fill="#525263"/>
<path d="M126.923 128.124C132.51 130.015 138.467 130.81 143.851 133.219C144.024 133.271 144.185 133.359 144.323 133.477C144.46 133.594 144.572 133.739 144.651 133.902C144.698 134.169 144.664 134.444 144.553 134.691C140.006 148.213 137.442 162.322 136.939 176.579C140.16 177.159 143.453 177.231 146.696 176.794C147.061 176.772 147.414 176.66 147.725 176.468C148.024 176.206 148.249 175.871 148.378 175.495C153.589 163.795 158.267 151.875 162.411 139.736C163.144 137.586 163.871 135.338 163.575 133.083C163.15 129.8 160.68 127.213 158.333 124.878L140.044 106.632C139.579 106.108 139.007 105.688 138.368 105.4C137.632 105.181 136.855 105.143 136.101 105.289C128.888 106.182 119.038 106.46 105.782 105.905C104.063 105.831 112.558 115.62 113.266 117.498C113.833 118.989 115.625 120.911 116.722 122.069C119.469 124.952 123.178 126.855 126.923 128.124Z" fill="url(#paint4_linear_672_2)"/>
<path d="M136.003 184.667C135.554 185.365 135.25 186.147 135.11 186.965C134.781 188.397 134.538 189.847 134.383 191.308C134.259 192.441 134.216 193.673 134.863 194.603C135.51 195.533 136.576 195.872 137.574 196.26C140.086 197.294 142.526 198.494 144.879 199.851C146.469 200.726 148.126 201.632 149.937 201.699C151.748 201.767 153.75 200.775 154.162 199.014C154.305 198.166 154.233 197.295 153.953 196.482C152.964 192.947 151.025 189.752 148.347 187.242C147.878 186.784 147.355 186.385 146.789 186.053C146.246 185.773 145.679 185.542 145.095 185.363C143.45 184.761 141.764 184.278 140.05 183.916C138.553 183.675 137.038 183.232 136.003 184.667Z" fill="#2E2E3F"/>
<path d="M136.003 184.667C135.554 185.365 135.25 186.147 135.11 186.965C134.781 188.397 134.538 189.847 134.383 191.308C134.259 192.441 134.216 193.673 134.863 194.603C135.51 195.533 136.576 195.872 137.574 196.26C140.086 197.294 142.526 198.494 144.879 199.851C146.469 200.726 148.126 201.632 149.937 201.699C151.748 201.767 153.75 200.775 154.162 199.014C154.305 198.166 154.233 197.295 153.953 196.482C152.964 192.947 151.025 189.752 148.347 187.242C147.878 186.784 147.355 186.385 146.789 186.053C146.246 185.773 145.679 185.542 145.095 185.363C143.45 184.761 141.764 184.278 140.05 183.916C138.553 183.675 137.038 183.232 136.003 184.667Z" fill="url(#paint5_linear_672_2)"/>
<path d="M137.832 177.041C137.365 179.478 137.122 181.952 137.105 184.433C137.105 185.523 137.179 186.731 137.961 187.513C138.702 188.101 139.646 188.372 140.586 188.264C141.719 188.223 142.837 187.991 143.894 187.581C144.128 187.508 144.34 187.376 144.51 187.199C144.634 187.024 144.721 186.824 144.762 186.614C145.702 183.087 146.201 179.458 146.247 175.809C146.307 175.237 146.188 174.66 145.908 174.158C145.323 173.339 144.109 173.376 143.124 173.573C141.862 173.843 140.625 174.22 139.428 174.7C138.294 175.094 138.06 175.87 137.832 177.041Z" fill="#F5BCBA"/>
<path d="M149.98 188.622C150.425 189.716 150.787 190.842 151.064 191.991C151.255 192.884 151.366 193.839 151.938 194.554C152.665 195.447 153.928 195.675 155.08 195.693C156.029 195.747 156.979 195.587 157.858 195.225C158.316 195.046 158.698 194.715 158.942 194.289C159.114 193.868 159.173 193.409 159.115 192.958C159.025 189.829 158.244 186.758 156.829 183.965C156.018 182.521 155.104 181.138 154.094 179.825C153.776 179.235 153.238 178.793 152.598 178.593C152.268 178.581 151.94 178.636 151.632 178.753C151.324 178.871 151.043 179.049 150.805 179.277C149.789 180.041 147.553 181.316 147.787 182.763C148.082 184.692 149.29 186.792 149.98 188.622Z" fill="#F5BCBA"/>
<path d="M157.445 190.895C156.748 191.285 156.072 191.71 155.419 192.17C154.402 192.73 153.207 192.841 152.092 193.161C151.798 193.218 151.528 193.362 151.316 193.574C151.163 193.782 151.067 194.026 151.039 194.283C150.83 195.964 150.898 197.668 151.242 199.328C151.809 202.917 152.47 206.492 153.226 210.052C153.54 211.518 153.916 213.064 154.981 214.118C156.047 215.171 157.667 215.535 159.183 215.578C160.6 215.659 162.017 215.395 163.31 214.808C164.338 214.257 165.229 213.482 165.916 212.539C166.603 211.596 167.068 210.51 167.277 209.362C167.678 207.055 167.395 204.68 166.464 202.531C165.831 201.061 165.094 199.639 164.258 198.274C163.15 196.369 162.045 194.463 160.944 192.558C160.107 191.104 159.343 190.088 157.445 190.895Z" fill="#2E2E3F"/>
<path d="M157.445 190.895C156.748 191.285 156.072 191.71 155.419 192.17C154.402 192.73 153.207 192.841 152.092 193.161C151.798 193.218 151.528 193.362 151.316 193.574C151.163 193.782 151.067 194.026 151.039 194.283C150.83 195.964 150.898 197.668 151.242 199.328C151.809 202.917 152.47 206.492 153.226 210.052C153.54 211.518 153.916 213.064 154.981 214.118C156.047 215.171 157.667 215.535 159.183 215.578C160.6 215.659 162.017 215.395 163.31 214.808C164.338 214.257 165.229 213.482 165.916 212.539C166.603 211.596 167.068 210.51 167.277 209.362C167.678 207.055 167.395 204.68 166.464 202.531C165.831 201.061 165.094 199.639 164.258 198.274C163.15 196.369 162.045 194.463 160.944 192.558C160.107 191.104 159.343 190.088 157.445 190.895Z" fill="url(#paint6_linear_672_2)"/>
<path d="M82.811 78.1421C82.272 79.4983 81.9117 80.9188 81.7392 82.3679C81.1532 86.12 80.7789 89.902 80.6181 93.6961C80.3101 100.94 80.7782 108.197 80.5749 115.441C80.3655 122.975 79.4785 130.785 82.1889 137.814C82.6109 139.089 83.3237 140.249 84.2709 141.202C84.7503 141.671 85.3412 142.01 85.988 142.186C86.6347 142.363 87.3158 142.372 87.9669 142.212C88.5562 141.985 89.085 141.625 89.5124 141.161C89.9398 140.696 90.2541 140.139 90.4309 139.533C90.7705 138.319 90.9201 137.059 90.8745 135.8L90.973 128.913C90.973 128.771 90.973 128.605 91.1147 128.543C91.174 128.523 91.2377 128.518 91.2993 128.53C91.361 128.542 91.4184 128.57 91.4658 128.611C91.9958 129.069 92.4997 129.556 92.975 130.071C93.5233 130.514 94.398 130.73 94.8846 130.219C95.0194 130.039 95.1148 129.834 95.1647 129.615C95.2145 129.396 95.2178 129.17 95.1741 128.95C94.8785 125.968 92.2789 123.819 90.7328 121.25C88.5029 117.554 88.5029 112.897 89.0634 108.597C89.7595 103.213 91.2133 97.9589 92.6609 92.7229L93.8929 88.2938C94.823 84.9305 95.7409 81.2591 94.3857 78.0374C93.8416 76.8 93.0128 75.7087 91.967 74.8523C90.9211 73.9959 89.6877 73.3988 88.3673 73.1094C85.7925 72.6351 83.7412 76.0478 82.811 78.1421Z" fill="#F5BCBA"/>
<path d="M140 106.152C139.206 108.289 134.721 105.794 132.159 107.076C127.268 109.54 121.687 107.008 116.235 107.076C110.433 107.18 106.429 112.897 100.669 113.624C100.25 113.71 99.8186 113.71 99.4 113.624C98.6053 113.39 98.1372 112.595 97.7984 111.85C97.3013 110.7 96.9455 109.494 96.7388 108.258C96.0243 104.168 96.7388 99.7821 97.5027 95.6241C98.1433 92.1006 98.7819 88.5751 99.4184 85.0474C100.158 80.9408 100.903 76.8095 101.655 72.6535C102.093 69.9118 102.71 67.2018 103.503 64.5408C103.65 64.0788 103.804 63.6291 103.971 63.1856C105.404 59.573 107.132 56.0849 109.139 52.7567C110.371 50.6192 111.603 48.4447 113.506 46.8247C115.632 45.0321 118.373 44.1389 121.126 43.7077C123.603 43.2409 126.156 43.389 128.561 44.1389C129.935 44.6194 130.453 46.0731 131.543 46.9663C132.925 47.9903 134.158 49.201 135.208 50.5638C136.274 52.2091 137.036 54.0327 137.456 55.9476C141.319 70.9657 135.732 87.1665 139.403 102.228C139.822 103.996 140.635 104.464 140 106.152Z" fill="#26B7AE"/>
<path d="M134.752 53.3974L135.233 56.5452L133.385 55.5165V63.8571L131.278 54.5925L133.317 51.6234L134.752 53.3974Z" fill="url(#paint7_linear_672_2)"/>
<path d="M119.106 53.194L120.27 53.81L122.118 55.4178L117.19 68.6371C117.19 68.6371 124.348 57.623 124.582 52.0051C124.727 48.5495 124.296 45.0938 123.307 41.7795L119.106 53.194Z" fill="url(#paint8_linear_672_2)"/>
<path d="M103.324 91.0841C102.933 94.1105 102.933 97.1746 103.324 100.201C103.577 102.104 103.983 104.002 103.854 105.911C103.86 106.284 103.74 106.649 103.515 106.946C103.226 107.181 102.871 107.321 102.499 107.347C100.573 107.65 98.6444 107.96 96.7143 108.277C95.9998 104.186 96.7143 99.8005 97.4781 95.6425C98.1188 92.119 98.7574 88.5934 99.3939 85.0658C100.133 80.9592 100.878 76.8278 101.63 72.6719C102.068 69.9302 102.686 67.2202 103.478 64.5592C103.626 64.0972 103.78 63.6475 103.946 63.204C105.856 62.1445 108.511 61.356 109.693 63.0685C110.925 64.9165 109.305 69.2285 108.825 71.0765C107.075 77.7724 104.205 84.1726 103.324 91.0841Z" fill="url(#paint9_linear_672_2)"/>
<path d="M147.633 37.6771C147.697 38.4431 147.674 39.2139 147.565 39.9748C147.503 40.3542 147.313 40.7011 147.028 40.9585C146.742 41.216 146.378 41.3687 145.994 41.3916C144.072 41.2499 142.686 43.0918 141.158 44.2745C139.96 45.1726 138.537 45.7231 137.046 45.8654C135.555 46.0078 134.054 45.7365 132.707 45.0814C132.439 44.9852 132.145 44.9955 131.885 45.1101C131.624 45.2248 131.418 45.435 131.309 45.6974C131.116 46.2409 131.074 46.8259 131.185 47.3914L131.894 54.1305C132.029 55.4302 132.042 57.0195 130.939 57.7218C129.836 58.424 128.53 57.8142 127.619 57.0195C126.186 55.6413 125.149 53.903 124.619 51.9868C123.414 48.1045 123.241 43.9753 124.117 40.0059C124.993 36.0365 126.888 32.3636 129.615 29.3488C130.638 28.2046 131.838 27.2314 133.169 26.4659C134.562 25.7429 136.058 25.2381 137.604 24.9691C138.988 24.6424 140.418 24.5632 141.83 24.735C143.725 25.0796 145.449 26.0542 146.721 27.5008C147.657 28.5234 148.569 31.5726 149.554 32.0715C148.821 33.9319 147.663 35.5766 147.633 37.6771Z" fill="#F5BCBA"/>
<path d="M132.972 11.2261C132.069 11.0148 131.126 11.0424 130.237 11.3061C128.5 11.9221 127.527 13.7393 126.898 15.4703C126.27 17.2013 125.752 19.0924 124.385 20.3182C123.208 21.3777 121.539 21.8028 120.48 22.9732C119.248 24.3345 119.13 26.3489 119.248 28.1784C119.248 29.551 119.634 30.8959 120.362 32.0592C121.015 32.9462 122.02 33.5622 122.531 34.5232C123.11 35.6258 123.307 37.3321 124.551 37.4061C125.07 37.3798 125.56 37.16 125.925 36.7901C127.183 35.7029 128.131 34.3024 128.672 32.7306C128.974 31.8559 129.171 30.8826 129.837 30.2666C130.502 29.6506 131.857 29.6137 132.159 30.4884C132.244 31.0449 132.158 31.6141 131.912 32.1208C131.752 32.6629 131.82 33.3959 132.35 33.5807C133.348 32.0407 133.908 30.2297 135.091 28.8313C135.762 28.0449 136.604 27.4225 137.553 27.0117C138.502 26.601 139.532 26.4128 140.565 26.4615C141.597 26.5103 142.605 26.7947 143.511 27.293C144.417 27.7913 145.197 28.4903 145.791 29.3365C146.407 30.2173 146.826 31.2645 147.688 31.8929C148.501 32.3878 149.429 32.6598 150.38 32.6813C152.499 32.8908 154.741 32.9709 156.651 32.0284C158.561 31.0859 159.971 28.8005 159.238 26.7985C158.659 25.2277 157.008 24.3345 155.407 23.8294C153.805 23.3243 152.093 23.0717 150.682 22.1724C148.766 20.9404 147.744 18.7474 146.629 16.7577C145.514 14.7681 144.005 12.7229 141.775 12.2548C140.864 12.1131 139.938 12.1131 139.027 12.2548C138.139 12.4432 137.23 12.5136 136.323 12.4642C135.214 12.2363 134.142 11.4848 132.972 11.2261Z" fill="#2E2E3F"/>
<path d="M132.972 61.8427C134.379 68.9689 134.793 76.2554 134.204 83.4951C133.717 89.5196 132.559 95.501 132.602 101.544C132.693 103.243 132.642 104.947 132.448 106.638C132.177 108.314 120.942 107.673 119.303 107.655C116.543 107.618 120.042 111.351 117.966 109.552C114.708 106.712 113.254 102.283 112.854 97.9834C112.281 91.8542 113.537 85.7189 114.905 79.7129C115.853 75.5549 116.864 71.3846 118.564 67.473C120.671 62.6374 124.003 56.4835 125.075 51.3153C125.229 50.5576 122.611 47.8041 123.738 47.8411C124.471 47.8411 124.126 48.9807 124.256 49.5474C124.487 50.4104 124.929 51.2021 125.543 51.8512C126.402 52.8545 127.566 53.549 128.857 53.8286C129.689 53.9826 130.637 53.9456 131.241 54.537C131.974 55.2515 131.857 56.6437 132.067 57.617C132.368 59.0091 132.689 60.4198 132.972 61.8427Z" fill="#F2F2F2"/>
<path d="M108.03 43.5168C105.049 44.8843 102.486 47.0034 100.065 49.221C98.0614 51.0266 96.1689 52.9521 94.398 54.9867C92.8334 56.8347 91.4043 58.7505 89.7534 60.4938C87.4742 62.89 84.6283 65.2062 84.1786 68.5018C84.041 70.2203 84.342 71.9456 85.0533 73.516C85.6396 75.1194 86.5051 76.6064 87.6097 77.9081C89.0115 79.4586 90.8606 80.535 92.9012 80.9881C93.5407 81.1548 94.2083 81.1842 94.86 81.0743C95.7778 80.8131 96.6217 80.3405 97.324 79.6945C98.9298 78.4793 100.451 77.156 101.876 75.7336C103.33 74.2244 104.562 72.5058 105.979 70.9596C107.211 69.629 108.523 68.4278 109.755 67.1219C111.227 65.5573 112.539 63.851 113.851 62.1446C115.708 59.8302 117.41 57.3959 118.946 54.8574C120.229 52.6171 121.248 50.2358 121.983 47.7611C122.457 46.1471 123.215 44.102 121.576 42.9378C118.096 40.4861 111.498 41.8967 108.03 43.5168Z" fill="#26B7AE"/>
<path d="M108.03 43.5168C105.049 44.8843 102.486 47.0034 100.065 49.221C98.0614 51.0266 96.1689 52.9521 94.398 54.9867C92.8334 56.8347 91.4043 58.7505 89.7534 60.4938C87.4742 62.89 84.6283 65.2062 84.1786 68.5018C84.041 70.2203 84.342 71.9456 85.0533 73.516C85.6396 75.1194 86.5051 76.6064 87.6097 77.9081C89.0115 79.4586 90.8606 80.535 92.9012 80.9881C93.5407 81.1548 94.2083 81.1842 94.86 81.0743C95.7778 80.8131 96.6217 80.3405 97.324 79.6945C98.9298 78.4793 100.451 77.156 101.876 75.7336C103.33 74.2244 104.562 72.5058 105.979 70.9596C107.211 69.629 108.523 68.4278 109.755 67.1219C111.227 65.5573 112.539 63.851 113.851 62.1446C115.708 59.8302 117.41 57.3959 118.946 54.8574C120.229 52.6171 121.248 50.2358 121.983 47.7611C122.457 46.1471 123.215 44.102 121.576 42.9378C118.096 40.4861 111.498 41.8967 108.03 43.5168Z" fill="#26B7AE"/>
<path d="M159.669 71.6432C159.003 72.064 158.527 72.7276 158.342 73.4935C158.157 74.2593 158.277 75.0672 158.678 75.7458C159.712 77.5448 161.099 79.1163 162.756 80.3658C163.741 81.4253 165.959 81.5978 167.93 80.4397C169.901 79.2816 179.307 74.1627 184.007 70.8178C184.352 70.5808 184.645 70.276 184.868 69.9221C185.091 69.5681 185.24 69.1724 185.305 68.7591C185.37 68.3458 185.351 67.9236 185.247 67.5181C185.144 67.1127 184.959 66.7326 184.704 66.4011L180.767 61.4731C180.301 60.8899 179.635 60.4994 178.899 60.3766C178.162 60.2539 177.406 60.4074 176.776 60.8078L159.669 71.6432Z" fill="#3D3D54"/>
<path d="M97.1513 124.737C97.8462 127.288 99.0792 129.662 100.767 131.697C102.615 133.853 105.129 135.393 107.543 136.859L117.713 143.05C119.205 143.908 120.632 144.873 121.982 145.939C125.315 148.687 127.526 152.518 129.676 156.263L144.509 182.117C145.261 183.441 146.314 184.938 147.836 184.889C148.655 184.782 149.425 184.44 150.053 183.903C151.957 182.567 154.002 181.045 154.569 178.784C154.963 177.207 154.569 175.55 154.094 173.986C151.815 166.28 148.242 159.023 144.657 151.81C138.961 140.393 133.181 128.999 127.317 117.628C125.758 114.61 123.867 109.909 121.292 107.692C121.292 107.692 97.3669 106.238 96.7632 108.61C95.4187 113.92 95.5529 119.497 97.1513 124.737V124.737Z" fill="#525263"/>
<path d="M97.1513 124.737C97.8462 127.288 99.0792 129.662 100.767 131.697C102.615 133.853 105.129 135.393 107.543 136.859L117.713 143.05C119.205 143.908 120.632 144.873 121.982 145.939C125.315 148.687 127.526 152.518 129.676 156.263L144.509 182.117C145.261 183.441 146.314 184.938 147.836 184.889C148.655 184.782 149.425 184.44 150.053 183.903C151.957 182.567 154.002 181.045 154.569 178.784C154.963 177.207 154.569 175.55 154.094 173.986C151.815 166.28 148.242 159.023 144.657 151.81C138.961 140.393 133.181 128.999 127.317 117.628C125.758 114.61 123.867 109.909 121.292 107.692C121.292 107.692 97.3669 106.238 96.7632 108.61C95.4187 113.92 95.5529 119.497 97.1513 124.737V124.737Z" fill="url(#paint10_linear_672_2)"/>
<path d="M124.058 40.141L120.676 41.4777L118.625 52.9538L125.444 52.6458L124.058 40.141Z" fill="#26B7AE"/>
<path d="M131.216 52.369C131.216 52.8864 131.216 53.4038 131.216 53.9213C131.216 54.1456 131.229 54.3698 131.253 54.5927C131.29 54.8191 131.34 55.0432 131.401 55.2642L132.251 58.6152L132.602 53.1698C133.606 53.6564 134.635 54.0999 135.682 54.488C135.603 53.6719 135.395 52.8735 135.066 52.1226C134.45 50.5456 133.884 48.9625 133.218 47.4163C133.063 47.0033 132.838 46.62 132.553 46.2829C132.409 46.1157 132.229 45.9842 132.026 45.8987C131.823 45.8132 131.603 45.776 131.383 45.7901C130.767 46.0488 131.155 48.3588 131.161 48.8701L131.216 52.369Z" fill="#26B7AE"/>
<path d="M181.051 68.9453L168.533 76.8609C168.314 76.9793 168.061 77.0194 167.816 76.9746C167.57 76.9298 167.348 76.8028 167.184 76.6145L163.205 72.13C163.123 72.0536 163.06 71.9597 163.02 71.8552C162.979 71.7507 162.964 71.6385 162.973 71.527C162.982 71.4155 163.017 71.3076 163.074 71.2114C163.132 71.1153 163.21 71.0334 163.304 70.9719L175.845 63.0625C176.065 62.9441 176.318 62.904 176.563 62.9488C176.808 62.9935 177.031 63.1206 177.194 63.3089L181.174 67.7872C181.254 67.8653 181.316 67.9607 181.354 68.0663C181.393 68.1718 181.406 68.2847 181.394 68.3963C181.383 68.5079 181.345 68.6153 181.286 68.7104C181.226 68.8056 181.146 68.8859 181.051 68.9453Z" fill="#26B7AE"/>
<defs>
<linearGradient id="paint0_linear_672_2" x1="125.358" y1="73.4174" x2="150.639" y2="73.0293" gradientUnits="userSpaceOnUse">
<stop offset="0.01"/>
<stop offset="0.13" stop-opacity="0.69"/>
<stop offset="1" stop-opacity="0"/>
</linearGradient>
<linearGradient id="paint1_linear_672_2" x1="202.007" y1="48.8268" x2="9.66125" y2="249.735" gradientUnits="userSpaceOnUse">
<stop offset="0.01"/>
<stop offset="0.13" stop-opacity="0.69"/>
<stop offset="1" stop-opacity="0"/>
</linearGradient>
<linearGradient id="paint2_linear_672_2" x1="150.596" y1="124.071" x2="95.3836" y2="181.747" gradientUnits="userSpaceOnUse">
<stop offset="0.01"/>
<stop offset="0.13" stop-opacity="0.69"/>
<stop offset="1" stop-opacity="0"/>
</linearGradient>
<linearGradient id="paint3_linear_672_2" x1="70.1274" y1="115.638" x2="144.743" y2="162.374" gradientUnits="userSpaceOnUse">
<stop offset="0.01"/>
<stop offset="0.13" stop-opacity="0.69"/>
<stop offset="1" stop-opacity="0"/>
</linearGradient>
<linearGradient id="paint4_linear_672_2" x1="105.554" y1="141.116" x2="163.643" y2="141.116" gradientUnits="userSpaceOnUse">
<stop offset="0.01"/>
<stop offset="0.13" stop-opacity="0.69"/>
<stop offset="1" stop-opacity="0"/>
</linearGradient>
<linearGradient id="paint5_linear_672_2" x1="157.821" y1="196.174" x2="141.836" y2="192.071" gradientUnits="userSpaceOnUse">
<stop offset="0.01"/>
<stop offset="0.13" stop-opacity="0.69"/>
<stop offset="1" stop-opacity="0"/>
</linearGradient>
<linearGradient id="paint6_linear_672_2" x1="150.916" y1="203.098" x2="167.486" y2="203.098" gradientUnits="userSpaceOnUse">
<stop offset="0.01"/>
<stop offset="0.13" stop-opacity="0.69"/>
<stop offset="1" stop-opacity="0"/>
</linearGradient>
<linearGradient id="paint7_linear_672_2" x1="123.954" y1="49.917" x2="141.036" y2="64.1281" gradientUnits="userSpaceOnUse">
<stop offset="0.01"/>
<stop offset="0.13" stop-opacity="0.69"/>
<stop offset="1" stop-opacity="0"/>
</linearGradient>
<linearGradient id="paint8_linear_672_2" x1="135.202" y1="49.2947" x2="103.632" y2="61.7995" gradientUnits="userSpaceOnUse">
<stop offset="0.01"/>
<stop offset="0.13" stop-opacity="0.69"/>
<stop offset="1" stop-opacity="0"/>
</linearGradient>
<linearGradient id="paint9_linear_672_2" x1="81.9488" y1="85.8728" x2="121.065" y2="84.5176" gradientUnits="userSpaceOnUse">
<stop offset="0.01"/>
<stop offset="0.13" stop-opacity="0.69"/>
<stop offset="1" stop-opacity="0"/>
</linearGradient>
<linearGradient id="paint10_linear_672_2" x1="114.633" y1="149.931" x2="158.505" y2="131.482" gradientUnits="userSpaceOnUse">
<stop offset="0.01"/>
<stop offset="0.13" stop-opacity="0.69"/>
<stop offset="1" stop-opacity="0"/>
</linearGradient>
</defs>
</svg>
