<svg width="234" height="234" viewBox="0 0 234 234" fill="none" xmlns="http://www.w3.org/2000/svg">
<circle cx="116.548" cy="116.888" r="114.263" fill="#CBD5EE" stroke="url(#paint0_linear_672_76)" stroke-width="4.56914"/>
<path fill-rule="evenodd" clip-rule="evenodd" d="M115.222 117.653C131.582 117.653 144.845 104.39 144.845 88.0304C144.845 71.6705 131.582 58.4081 115.222 58.4081C98.8625 58.4081 85.6002 71.6705 85.6002 88.0304C85.6002 104.39 98.8625 117.653 115.222 117.653ZM115.222 122.222C134.106 122.222 149.414 106.914 149.414 88.0304C149.414 69.147 134.106 53.839 115.222 53.839C96.3391 53.839 81.031 69.147 81.031 88.0304C81.031 106.914 96.3391 122.222 115.222 122.222ZM77.2082 132.294C72.2412 132.294 68.2146 136.321 68.2146 141.288V170.799H114.02V147.009L102.315 153.428C101.294 153.988 100.015 153.69 99.346 152.736L86.2048 133.998C85.8432 133.482 85.7244 132.869 85.8245 132.294H77.2082ZM90.5907 132.294L101.912 148.437L112.709 142.517L104.123 132.733C104.003 132.596 103.902 132.448 103.82 132.294H90.5907ZM107.003 129.259C106.693 128.366 105.844 127.725 104.845 127.725L77.2082 127.725C69.7177 127.725 63.6455 133.797 63.6455 141.288V173.083C63.6455 174.345 64.6683 175.368 65.9301 175.368H167.166C168.428 175.368 169.451 174.345 169.451 173.083V141.288C169.451 133.797 163.378 127.725 155.888 127.725H126.421C125.384 127.725 124.509 128.416 124.23 129.362C124.051 129.489 123.888 129.644 123.747 129.826L116.196 139.563L107.557 129.719C107.394 129.532 107.206 129.379 107.003 129.259ZM127.572 132.294C127.511 132.409 127.44 132.52 127.357 132.626L119.641 142.576L128.672 148.37L141.069 132.294H127.572ZM146.797 132.294C146.737 132.407 146.667 132.516 146.586 132.621L131.011 152.819C130.288 153.758 128.966 153.987 127.969 153.347L118.589 147.33V170.799H164.881V141.288C164.881 136.321 160.855 132.294 155.888 132.294H146.797ZM136.746 155.954C135.485 155.954 134.462 156.977 134.462 158.238C134.462 159.5 135.485 160.523 136.746 160.523H151.104C152.366 160.523 153.389 159.5 153.389 158.238C153.389 156.977 152.366 155.954 151.104 155.954H136.746Z" fill="url(#paint1_linear_672_76)"/>
<defs>
<linearGradient id="paint0_linear_672_76" x1="116.548" y1="0.34021" x2="116.548" y2="233.436" gradientUnits="userSpaceOnUse">
<stop stop-color="#26B7AE"/>
<stop offset="1" stop-color="#264FB7"/>
</linearGradient>
<linearGradient id="paint1_linear_672_76" x1="116.548" y1="53.839" x2="116.548" y2="175.368" gradientUnits="userSpaceOnUse">
<stop stop-color="#26B7AE"/>
<stop offset="1" stop-color="#264FB7"/>
</linearGradient>
</defs>
</svg>
