<svg width="106" height="122" viewBox="0 0 106 122" fill="none" xmlns="http://www.w3.org/2000/svg">
<path fill-rule="evenodd" clip-rule="evenodd" d="M51.577 63.8138C67.9369 63.8138 81.1993 50.5514 81.1993 34.1915C81.1993 17.8315 67.9369 4.56914 51.577 4.56914C35.217 4.56914 21.9547 17.8315 21.9547 34.1915C21.9547 50.5514 35.217 63.8138 51.577 63.8138ZM51.577 68.3829C70.4604 68.3829 85.7684 53.0749 85.7684 34.1915C85.7684 15.308 70.4604 0 51.577 0C32.6936 0 17.3855 15.308 17.3855 34.1915C17.3855 53.0749 32.6936 68.3829 51.577 68.3829ZM13.5627 78.4551C8.59569 78.4551 4.56914 82.4817 4.56914 87.4487V116.96H50.3744V93.1697L38.6694 99.5886C37.6482 100.149 36.3692 99.8507 35.7005 98.8972L22.5593 80.1588C22.1977 79.6432 22.0789 79.0301 22.179 78.4551H13.5627ZM26.9452 78.4551L38.2665 94.5984L49.0633 88.6776L40.4775 78.8938C40.3573 78.7568 40.2564 78.6095 40.1746 78.4551H26.9452ZM43.3579 75.42C43.0473 74.5269 42.1982 73.886 41.1994 73.886L13.5627 73.886C6.07222 73.886 0 79.9582 0 87.4487V119.244C0 120.506 1.02284 121.529 2.28457 121.529H103.52C104.782 121.529 105.805 120.506 105.805 119.244V87.4487C105.805 79.9582 99.7328 73.886 92.2423 73.886H62.7758C61.739 73.886 60.8634 74.5767 60.5843 75.5231C60.4056 75.65 60.2424 75.8048 60.1011 75.9869L52.5501 85.7238L43.9118 75.8801C43.748 75.6934 43.5606 75.5399 43.3579 75.42ZM63.9264 78.4551C63.8655 78.5698 63.7941 78.6809 63.7118 78.787L55.9952 88.7373L65.0269 94.5313L77.423 78.4551H63.9264ZM83.1514 78.4551C83.0916 78.568 83.0214 78.6774 82.9407 78.782L67.366 98.9805C66.6422 99.9191 65.3208 100.148 64.3232 99.5084L54.9435 93.4912V116.96H101.236V87.4487C101.236 82.4817 97.2093 78.4551 92.2423 78.4551H83.1514ZM73.1008 102.115C71.8391 102.115 70.8162 103.138 70.8162 104.399C70.8162 105.661 71.8391 106.684 73.1008 106.684H87.4588C88.7205 106.684 89.7433 105.661 89.7433 104.399C89.7433 103.138 88.7205 102.115 87.4588 102.115H73.1008Z" fill="url(#paint0_linear_672_72)"/>
<defs>
<linearGradient id="paint0_linear_672_72" x1="52.9025" y1="0" x2="52.9025" y2="121.529" gradientUnits="userSpaceOnUse">
<stop stop-color="#26B7AE"/>
<stop offset="1" stop-color="#264FB7"/>
</linearGradient>
</defs>
</svg>
