<svg width="311" height="216" viewBox="0 0 311 216" fill="none" xmlns="http://www.w3.org/2000/svg">
<path opacity="0.24" d="M298.643 176.808C287.112 188.271 269.957 192.051 253.712 192.57C237.467 193.09 221.142 190.857 204.977 192.607C193.396 193.845 182.243 197.08 171.163 200.742C162.459 203.619 153.786 206.743 145.008 209.403C125.082 215.366 102.991 218.608 83.9126 210.337C74.1507 206.106 65.8797 199.171 57.3798 192.768C39.0995 179.035 18.7097 166.984 5.82382 148.079C3.34933 144.509 1.19034 140.587 0.602647 136.325C-1.1295 123.953 10.0181 114.16 18.3757 104.899C34.0021 87.5776 42.2916 64.9917 54.1692 44.8926C65.6508 25.4369 82.1247 9.24141 104.03 2.14581C125.063 -4.65904 147.699 8.165 168.404 10.8498C169.326 10.9735 170.26 11.0787 171.163 11.1468C197.591 13.6213 225.218 2.48605 250.347 11.1839C263.165 15.638 273.687 24.8307 283.87 33.8131C288.312 37.7166 292.852 41.7748 295.469 47.064C300.641 57.5002 297.257 69.8664 296.459 81.4842C295.819 90.7875 296.924 100.129 299.719 109.025C303.208 120.092 309.295 130.423 310.718 141.942C311.452 148.287 310.748 154.717 308.658 160.752C306.567 166.788 303.144 172.276 298.643 176.808V176.808Z" fill="#26B7AE"/>
<path d="M111.144 129.199L140.102 121.274C140.596 121.139 141.112 121.111 141.618 121.191C142.123 121.272 142.606 121.459 143.033 121.74C143.46 122.022 143.823 122.391 144.096 122.824C144.369 123.257 144.547 123.743 144.618 124.25L146.814 140.191C146.928 141.031 146.743 141.884 146.29 142.6C145.838 143.316 145.147 143.85 144.34 144.107L116.502 153.145C116.017 153.303 115.505 153.356 114.999 153.301C114.493 153.246 114.004 153.084 113.565 152.826C113.126 152.568 112.747 152.22 112.452 151.805C112.157 151.39 111.954 150.917 111.856 150.417L108.565 133.387C108.385 132.492 108.551 131.562 109.03 130.785C109.508 130.007 110.264 129.441 111.144 129.199V129.199Z" fill="#606161"/>
<path d="M111.757 130.591L140.714 123.217C141.193 123.082 141.695 123.047 142.188 123.116C142.681 123.184 143.155 123.354 143.579 123.614C144.003 123.874 144.369 124.22 144.653 124.628C144.937 125.037 145.134 125.5 145.23 125.988L147.433 140.81C147.532 141.614 147.336 142.426 146.88 143.095C146.425 143.764 145.742 144.245 144.958 144.448L117.12 152.861C116.649 153.016 116.151 153.073 115.657 153.029C115.162 152.984 114.683 152.838 114.247 152.6C113.812 152.362 113.43 152.038 113.125 151.646C112.82 151.255 112.598 150.805 112.474 150.325L109.14 134.488C108.976 133.625 109.159 132.732 109.648 132.002C110.138 131.273 110.896 130.765 111.757 130.591V130.591Z" fill="url(#paint0_linear_672_36)"/>
<path d="M136.001 136.183L133.805 185.499L128.676 185.252L124.766 137.649L136.001 136.183Z" fill="#F4A982"/>
<path d="M136.001 136.183L133.805 185.499L128.676 185.252L124.766 137.649L136.001 136.183Z" fill="url(#paint1_linear_672_36)"/>
<path d="M137.467 138.868L140.881 184.85H136.489L127.698 143.019L137.467 138.868Z" fill="#F4A982"/>
<path d="M115.92 121.398C116.539 122.072 117.745 121.75 118.277 121.008C118.809 120.265 119.774 119.529 119.799 118.62C119.867 115.613 119.02 112.366 119.094 109.341C119.209 106.923 119.152 104.5 118.921 102.09C118.469 98.3786 117.201 94.7844 116.731 91.0665C116.415 88.592 116.731 86.0495 116.403 83.5812C114.473 96.0774 118.067 108.852 115.92 121.398Z" fill="#26B7AE"/>
<path d="M115.92 121.398C116.539 122.072 117.745 121.75 118.277 121.008C118.809 120.265 119.774 119.529 119.799 118.62C119.867 115.613 119.02 112.366 119.094 109.341C119.209 106.923 119.152 104.5 118.921 102.09C118.469 98.3786 117.201 94.7844 116.731 91.0665C116.415 88.592 116.731 86.0495 116.403 83.5812C114.473 96.0774 118.067 108.852 115.92 121.398Z" fill="#26B7AE"/>
<path d="M115.92 121.398C116.539 122.072 117.745 121.75 118.277 121.008C118.809 120.265 119.774 119.529 119.799 118.62C119.867 115.613 119.02 112.366 119.094 109.341C119.209 106.923 119.152 104.5 118.921 102.09C118.469 98.3786 117.201 94.7844 116.731 91.0665C116.415 88.592 116.731 86.0495 116.403 83.5812C114.473 96.0774 118.067 108.852 115.92 121.398Z" fill="url(#paint2_linear_672_36)"/>
<path d="M116.217 121.156C116.085 122.895 116.133 124.643 116.359 126.371C116.365 126.69 116.478 126.998 116.681 127.244C116.92 127.437 117.221 127.538 117.528 127.528C118.221 127.555 118.908 127.397 119.52 127.07C119.675 127 119.815 126.901 119.935 126.78C120.09 126.586 120.198 126.36 120.25 126.118C120.397 125.51 120.478 124.887 120.491 124.262C120.553 123.025 120.727 120.464 119.372 119.758C118.172 119.158 116.322 119.777 116.217 121.156Z" fill="#F4A982"/>
<path d="M129.282 59.2262L129.765 60.9522C130.006 61.8121 130.309 62.7524 131.07 63.2163C131.447 63.4452 131.979 63.6246 132.004 64.0639C131.995 64.2679 131.929 64.4652 131.812 64.633C131.395 65.4171 131.182 66.2936 131.194 67.1817C131.279 67.7543 131.241 68.3385 131.082 68.8953C130.941 69.1832 130.741 69.4383 130.495 69.6438C129.825 70.2366 128.998 70.6232 128.113 70.7573C127.793 70.7771 127.479 70.8525 127.185 70.9801C126.566 71.3141 126.486 72.1183 126.455 72.7988L126.381 74.1721C126.35 74.865 126.381 76.3868 126.381 77.0735C124.785 76.4239 123.244 74.8093 121.809 73.8505C121.521 73.6808 121.268 73.4559 121.067 73.1885C120.867 72.8233 120.768 72.4109 120.782 71.9946C120.745 70.4357 121.129 68.9015 120.968 67.3178C120.844 66.1672 120.43 65.0598 120.257 63.9154C120.022 62.4149 120.278 60.8788 120.987 59.5355C121.344 58.8689 121.829 58.2796 122.415 57.8018C123.001 57.324 123.676 56.9671 124.401 56.7517C125.377 56.462 126.424 56.5256 127.358 56.9311C127.821 57.1591 128.231 57.4809 128.562 57.876C128.893 58.2712 129.139 58.731 129.282 59.2262V59.2262Z" fill="#F4A982"/>
<path d="M125.509 55.1866C124.269 54.8949 122.981 54.8801 121.735 55.1433C121.293 55.2162 120.859 55.3365 120.442 55.5021C119.225 56.1087 118.2 57.04 117.479 58.1931C117.091 58.7079 116.757 59.2614 116.483 59.8448C115.865 61.2058 115.865 62.7338 115.648 64.1751C115.58 64.6886 118.586 71.4378 118.791 71.5182C118.917 71.5842 119.039 71.6586 119.156 71.7409C119.761 71.9872 120.431 72.0292 121.063 71.8607C121.695 71.6921 122.254 71.3221 122.657 70.8068C122.864 70.2864 122.864 69.7064 122.657 69.186C122.484 68.6602 122.199 68.1776 121.995 67.6642C121.693 66.9188 121.556 66.1169 121.593 65.3134C121.584 64.9792 121.675 64.6499 121.853 64.3669C121.945 64.2288 122.082 64.1262 122.24 64.0756C122.399 64.0251 122.57 64.0296 122.725 64.0885C123.041 64.2494 123.263 64.7072 123.603 64.6144C123.692 64.575 123.765 64.5077 123.812 64.4229C123.859 64.338 123.877 64.2402 123.863 64.1442C123.828 63.9536 123.768 63.7685 123.684 63.5936C123.452 62.9936 123.468 62.3263 123.727 61.7378C124.129 60.8346 125.02 60.2716 125.793 59.6592C126.289 59.27 126.752 58.8418 127.179 58.3787C127.464 58.0755 128.206 57.4383 128.175 56.9868C128.132 56.0959 126.208 55.3721 125.509 55.1866Z" fill="#606161"/>
<path d="M125.509 55.1866C124.269 54.8949 122.981 54.8801 121.735 55.1433C121.293 55.2162 120.859 55.3365 120.442 55.5021C119.225 56.1087 118.2 57.04 117.479 58.1931C117.091 58.7079 116.757 59.2614 116.483 59.8448C115.865 61.2058 115.865 62.7338 115.648 64.1751C115.58 64.6886 118.586 71.4378 118.791 71.5182C118.917 71.5842 119.039 71.6586 119.156 71.7409C119.761 71.9872 120.431 72.0292 121.063 71.8607C121.695 71.6921 122.254 71.3221 122.657 70.8068C122.864 70.2864 122.864 69.7064 122.657 69.186C122.484 68.6602 122.199 68.1776 121.995 67.6642C121.693 66.9188 121.556 66.1169 121.593 65.3134C121.584 64.9792 121.675 64.6499 121.853 64.3669C121.945 64.2288 122.082 64.1262 122.24 64.0756C122.399 64.0251 122.57 64.0296 122.725 64.0885C123.041 64.2494 123.263 64.7072 123.603 64.6144C123.692 64.575 123.765 64.5077 123.812 64.4229C123.859 64.338 123.877 64.2402 123.863 64.1442C123.828 63.9536 123.768 63.7685 123.684 63.5936C123.452 62.9936 123.468 62.3263 123.727 61.7378C124.129 60.8346 125.02 60.2716 125.793 59.6592C126.289 59.27 126.752 58.8418 127.179 58.3787C127.464 58.0755 128.206 57.4383 128.175 56.9868C128.132 56.0959 126.208 55.3721 125.509 55.1866Z" fill="url(#paint3_linear_672_36)"/>
<path d="M137.708 143.507C137.708 144.095 125.113 146.174 124.649 145.215C123.238 142.338 123.263 139.678 121.853 136.802C120.442 133.925 119.087 131.129 118.512 128.042C117.937 124.955 119.261 121.324 121.104 118.763C123.065 116.084 125.36 115.014 128.46 113.814C130.229 113.139 136.285 110.405 138.03 112.026C139.465 113.387 137.467 135.719 137.708 143.507Z" fill="#606161"/>
<path d="M138.927 116.851L125.781 120.946L118.568 123.179C118.568 123.179 119.805 107.002 118.357 103.012C116.91 99.0221 115.586 82.672 116.205 81.1254C116.205 81.1254 117.262 71.9017 120.021 71.9017C120.255 71.9058 120.487 71.9348 120.714 71.9883C123.3 72.5451 126.022 76.0094 127.222 77.5869C128.54 79.3066 134.225 86.9033 134.8 88.8644C135.376 90.8254 138.927 116.851 138.927 116.851Z" fill="#26B7AE"/>
<path d="M125.781 120.946C126.214 118.428 128.522 103.625 125.521 101.15C117.04 94.1968 117.479 83.8287 118.061 82.3192C118.719 78.8192 119.605 75.3661 120.714 71.9821C123.3 72.5388 126.022 76.0031 127.222 77.5806C128.54 79.3004 134.225 86.897 134.801 88.8581C135.376 90.8191 138.945 116.845 138.945 116.845L125.781 120.946Z" fill="url(#paint4_linear_672_36)"/>
<path d="M295.457 47.0147L8.39114 152.125L6.98686 149.885L5.82385 148.048L291.38 40.8037L292.246 40.4758L295.457 47.0147Z" fill="#26B7AE"/>
<path d="M293.446 45.004L6.98686 149.885L5.82385 148.048L291.38 40.8036L293.446 45.004Z" fill="url(#paint5_linear_672_36)"/>
<path d="M57.3798 192.775L296.168 98.1252L308.862 135.558L95.3075 214.309C95.3075 214.309 61.1162 202.103 57.3798 192.775Z" fill="#26B7AE"/>
<path d="M59.5885 195.929L297.368 101.367L308.85 135.533L95.3078 214.309C95.3078 214.309 66.7336 204.07 59.5885 195.929Z" fill="url(#paint6_linear_672_36)"/>
<path d="M123.306 65.6906C123.195 65.6146 123.109 65.5068 123.059 65.3812C123.022 65.2946 122.997 65.1833 122.911 65.1338C122.824 65.0843 122.626 65.1338 122.539 65.2823C122.445 65.4223 122.404 65.5909 122.422 65.7586C122.44 65.93 122.502 66.0939 122.601 66.2349C122.672 66.3593 122.769 66.467 122.886 66.5504C123.001 66.6367 123.145 66.6744 123.288 66.6556C123.381 66.6325 123.47 66.5971 123.554 66.5504C123.59 66.5308 123.624 66.5058 123.653 66.4762C123.681 66.4448 123.7 66.4063 123.709 66.3649C123.773 66.1956 123.773 66.0083 123.709 65.839C123.603 65.7091 123.443 65.7772 123.306 65.6906Z" fill="url(#paint7_linear_672_36)"/>
<path d="M148.936 89.9346C148.209 89.9612 147.498 90.1605 146.864 90.5161C146.544 90.6981 146.288 90.9735 146.13 91.3053C145.972 91.6371 145.919 92.0093 145.979 92.3719C146.115 92.6938 146.313 92.9854 146.563 93.2297C146.812 93.4739 147.108 93.6661 147.433 93.7948C148.429 94.3453 149.555 94.8712 150.662 94.6237C152.153 94.2835 153.031 92.6874 154.442 92.0997C155.237 91.8296 156.082 91.7388 156.916 91.8337C157.232 91.8337 157.609 91.8337 157.795 91.5863C157.864 91.4726 157.895 91.3396 157.883 91.2069C157.87 91.0743 157.816 90.9492 157.727 90.8501C157.546 90.6545 157.318 90.5094 157.065 90.4295C154.609 89.4953 151.509 89.6624 148.936 89.9346Z" fill="#F4A982"/>
<path d="M121.178 95.1373C121.543 95.9741 122.024 96.7551 122.607 97.4571C123.767 98.5858 125.287 99.2692 126.901 99.3872C129.709 99.7275 132.53 99.0655 135.271 98.3912C138.011 97.7169 140.912 96.9684 143.733 96.2446C144.971 95.9291 146.282 95.5641 147.123 94.6053C148.268 93.2938 148.163 91.3451 147.989 89.613C142.75 89.6687 129.61 90.9306 129.072 90.6213C128.534 90.312 127.983 88.1468 127.699 87.7014C126.548 85.8456 125.614 83.8598 124.352 82.0782C122.428 79.3686 118.382 75.7249 116.31 80.6244C114.454 84.9981 119.347 91.4008 121.178 95.1373Z" fill="#26B7AE"/>
<path d="M124.822 97.4013C124.822 97.4013 125.441 98.7994 126.35 99.2572C127.259 99.7149 133.186 99.1953 139.595 97.1786C146.004 95.1619 146.09 95.9413 147.525 94.0855C147.525 94.0731 133.427 98.4344 124.822 97.4013Z" fill="url(#paint8_linear_672_36)"/>
<path d="M111.973 61.713C111.727 61.8085 111.5 61.949 111.305 62.1275C111.061 62.3924 110.89 62.7166 110.81 63.0678C110.578 63.9679 110.625 64.9175 110.947 65.7897C111.269 66.662 111.849 67.4152 112.61 67.9487C113.005 68.2379 113.476 68.4037 113.965 68.4251C115.023 68.4251 115.821 67.46 116.341 66.5692C116.817 65.8133 117.144 64.9734 117.306 64.0947C117.466 63.0059 117.38 61.6202 116.204 61.3109C114.784 61.0399 113.317 61.1794 111.973 61.713V61.713Z" fill="#606161"/>
<path d="M111.973 61.713C111.727 61.8085 111.5 61.949 111.305 62.1275C111.061 62.3924 110.89 62.7166 110.81 63.0678C110.578 63.9679 110.625 64.9175 110.947 65.7897C111.269 66.662 111.849 67.4152 112.61 67.9487C113.005 68.2379 113.476 68.4037 113.965 68.4251C115.023 68.4251 115.821 67.46 116.341 66.5692C116.817 65.8133 117.144 64.9734 117.306 64.0947C117.466 63.0059 117.38 61.6202 116.204 61.3109C114.784 61.0399 113.317 61.1794 111.973 61.713V61.713Z" fill="url(#paint9_linear_672_36)"/>
<path d="M8.39099 152.137L295.432 47.0209C295.432 47.0209 299.793 55.9538 297.35 64.7444C294.906 73.535 296.112 98.1005 296.112 98.1005L57.324 192.75C57.324 192.75 9.94992 158.472 8.39099 152.137Z" fill="url(#paint10_linear_672_36)"/>
<defs>
<linearGradient id="paint0_linear_672_36" x1="109.109" y1="138.051" x2="147.464" y2="138.051" gradientUnits="userSpaceOnUse">
<stop stop-color="#010101" stop-opacity="0"/>
<stop offset="0.95" stop-color="#010101"/>
</linearGradient>
<linearGradient id="paint1_linear_672_36" x1="128.528" y1="161.893" x2="154.733" y2="150.826" gradientUnits="userSpaceOnUse">
<stop stop-color="#010101" stop-opacity="0"/>
<stop offset="0.95" stop-color="#010101"/>
</linearGradient>
<linearGradient id="paint2_linear_672_36" x1="114.052" y1="102.734" x2="139.935" y2="102.245" gradientUnits="userSpaceOnUse">
<stop stop-color="#010101" stop-opacity="0"/>
<stop offset="0.95" stop-color="#010101"/>
</linearGradient>
<linearGradient id="paint3_linear_672_36" x1="118.246" y1="61.6079" x2="125.162" y2="64.701" gradientUnits="userSpaceOnUse">
<stop stop-color="#010101" stop-opacity="0"/>
<stop offset="0.95" stop-color="#010101"/>
</linearGradient>
<linearGradient id="paint4_linear_672_36" x1="120.64" y1="96.4671" x2="206.418" y2="96.4671" gradientUnits="userSpaceOnUse">
<stop stop-color="#010101" stop-opacity="0"/>
<stop offset="0.95" stop-color="#010101"/>
</linearGradient>
<linearGradient id="paint5_linear_672_36" x1="139.774" y1="70.5593" x2="169.072" y2="147.708" gradientUnits="userSpaceOnUse">
<stop stop-color="white" stop-opacity="0"/>
<stop offset="0.95" stop-color="white"/>
</linearGradient>
<linearGradient id="paint6_linear_672_36" x1="180.628" y1="136.758" x2="204.439" y2="329.15" gradientUnits="userSpaceOnUse">
<stop stop-color="#010101" stop-opacity="0"/>
<stop offset="0.95" stop-color="#010101"/>
</linearGradient>
<linearGradient id="paint7_linear_672_36" x1="122.638" y1="65.9689" x2="126.22" y2="65.1771" gradientUnits="userSpaceOnUse">
<stop stop-color="#010101" stop-opacity="0"/>
<stop offset="0.95" stop-color="#010101"/>
</linearGradient>
<linearGradient id="paint8_linear_672_36" x1="136.223" y1="95.9104" x2="141.407" y2="115.075" gradientUnits="userSpaceOnUse">
<stop stop-color="#010101" stop-opacity="0"/>
<stop offset="0.95" stop-color="#010101"/>
</linearGradient>
<linearGradient id="paint9_linear_672_36" x1="113.47" y1="63.1173" x2="115.666" y2="66.6125" gradientUnits="userSpaceOnUse">
<stop stop-color="#010101" stop-opacity="0"/>
<stop offset="0.95" stop-color="#010101"/>
</linearGradient>
<linearGradient id="paint10_linear_672_36" x1="151.732" y1="92.4958" x2="183.214" y2="346.861" gradientUnits="userSpaceOnUse">
<stop stop-color="white" stop-opacity="0"/>
<stop offset="0.95" stop-color="white"/>
</linearGradient>
</defs>
</svg>
